# xmcd
#
# Track frame offsets: 
#        180
#        19448
#        32192
#        45197
#        58785
#        68518
#        81166
#        94529
#        108625
#        119845
#        136182
#        147649
#        161745
#        174307
#        188250
#        202199
#        217124
#        231766
#
# Disc length: 3268 seconds
#
# Revision: 0
# Processed by: cddbd v1.5.2PL0 Copyright (c) Steve Scherf et al.
# Submitted via: ExactAudioCopyFreeDBPlugin 1.0
#
DISCID=050cc212
DTITLE=Various Artist - The Voices Of The Great Divas [CD 6)
DYEAR=2005
DGENRE=Jazz
TTITLE0=Judy Garland - Sweet Sixteen
TTITLE1=Billie Holiday - Forget If You Can
TTITLE2=Anita O'Day - Travelin' Man
TTITLE3=Edith Piaf - Un Refrain Courrait Dans La Rue
TTITLE4=Rosemary Clooney - Haven't Got A Worry To My Name
TTITLE5=Jeri Southern - After You
TTITLE6=Billie Holiday - Easy To Love
TTITLE7=Ella Fitzgerald - Crying My Heart Out For You
TTITLE8=Sarah Vaughan - Perdido
TTITLE9=Dinah Shore - Love Me Or Leave Me
TTITLE10=Mildred Bailey - St. Louis Blues
TTITLE11=Ella Fitzgerald - No Nothing
TTITLE12=Peggy Lee - Bye Bye Blues
TTITLE13=Ella Fitzgerald - Bei Mir Bist Du Schön
TTITLE14=Doris Day - (Oh Yes) There's Good Blues Tonight
TTITLE15=Ella Fitzgerald - Jubilee Swing
TTITLE16=Peggy Lee - Moon Flowers
TTITLE17=Mildred Bailey - Arkansas Blues
EXTD=
EXTT0=
EXTT1=
EXTT2=
EXTT3=
EXTT4=
EXTT5=
EXTT6=
EXTT7=
EXTT8=
EXTT9=
EXTT10=
EXTT11=
EXTT12=
EXTT13=
EXTT14=
EXTT15=
EXTT16=
EXTT17=
PLAYORDER=
